<?xml version="1.0" standalone="no"?>
<!DOCTYPE svg PUBLIC "-//W3C//DTD SVG 20010904//EN"
 "http://www.w3.org/TR/2001/REC-SVG-20010904/DTD/svg10.dtd">
<svg version="1.0" xmlns="http://www.w3.org/2000/svg"
 width="3464.000000pt" height="3464.000000pt" viewBox="0 0 3464.000000 3464.000000"
 preserveAspectRatio="xMidYMid meet">

<g transform="translate(0.000000,3464.000000) scale(0.100000,-0.100000)"
fill="#000000" stroke="none">
<path d="M8749 19867 c-137 -39 -220 -136 -256 -299 -18 -85 -18 -139 2 -226
36 -153 146 -296 284 -366 42 -22 559 -215 694 -260 56 -18 138 -47 182 -64
44 -17 143 -53 220 -80 143 -50 268 -96 502 -183 72 -27 134 -49 138 -49 6 0
179 -62 305 -110 41 -16 262 -99 490 -184 228 -85 464 -175 523 -199 371 -154
734 -460 935 -789 176 -287 262 -605 262 -963 0 -271 -46 -495 -150 -736 -87
-203 -210 -380 -384 -555 -168 -167 -281 -251 -452 -338 -184 -92 -363 -155
-522 -182 -53 -9 -101 -19 -107 -23 -5 -3 -818 -8 -1805 -11 l-1795 -5 -77
-33 c-175 -76 -279 -242 -272 -434 5 -150 57 -253 171 -340 71 -53 145 -83
241 -98 45 -7 623 -10 1777 -7 1563 3 1722 4 1845 21 545 71 1045 287 1449
626 527 443 853 1023 963 1718 30 188 33 605 5 787 -50 327 -162 681 -289 915
-271 500 -688 916 -1158 1157 -129 67 -295 134 -582 238 -278 101 -513 187
-713 261 -297 109 -630 230 -910 329 -176 62 -356 127 -400 143 -44 16 -125
46 -180 66 -55 20 -122 45 -150 56 -27 11 -99 37 -160 59 -60 21 -186 67 -280
101 -186 68 -262 81 -346 57z"/>
<path d="M12255 17415 c-5 -3 -68 -11 -140 -19 -136 -16 -347 -45 -525 -71
-58 -8 -159 -22 -225 -30 -66 -8 -166 -22 -222 -30 -56 -8 -137 -19 -180 -24
-452 -57 -686 -125 -885 -258 -173 -116 -277 -331 -278 -573 0 -280 133 -463
385 -530 161 -43 442 -34 795 25 47 8 139 21 205 29 66 8 178 22 249 31 75 10
175 15 238 13 109 -3 110 -3 139 -36 36 -41 37 -76 2 -129 -32 -50 -78 -76
-158 -92 -100 -19 -368 -58 -580 -86 -293 -38 -329 -42 -450 -60 -113 -16
-397 -53 -610 -81 -66 -8 -130 -19 -142 -24 l-23 -10 0 -255 c0 -218 2 -256
15 -261 14 -6 115 6 515 61 96 13 265 36 375 50 110 14 277 37 372 51 95 13
224 31 288 39 138 17 359 64 468 100 228 75 373 184 455 341 107 207 114 473
16 665 -94 186 -296 279 -606 279 -82 0 -656 -68 -718 -85 -48 -13 -412 -45
-449 -40 -57 9 -111 59 -111 103 0 38 66 100 130 124 41 15 226 48 360 63 30
3 132 17 225 30 281 40 525 73 817 110 153 19 289 40 304 45 l27 10 -8 258
c-4 141 -9 260 -12 265 -4 7 -40 8 -58 2z"/>
<path d="M6019 15459 c-74 -11 -180 -51 -233 -89 -44 -32 -101 -101 -129 -155
-49 -98 -58 -240 -21 -350 23 -69 94 -166 151 -208 84 -60 150 -79 308 -86 77
-3 955 -4 1952 -1 l1812 5 28 21 c21 16 29 31 31 60 3 46 -15 74 -117 179
-142 147 -288 377 -366 575 l-21 55 -1670 1 c-918 1 -1694 -2 -1725 -7z"/>
</g>
</svg>
