<svg width="961" height="185" viewBox="0 0 185 961" fill="none" xmlns="http://www.w3.org/2000/svg">
  <!-- Mengubah jalur kiri ke kanan menjadi atas ke bawah -->
  <path d="M96 491C108.5 521.667 123 590.3 93 647.5C55.5 719 5.50001 841.5 21 916.5" stroke="#BFBFBF" stroke-linejoin="round" stroke-dasharray="8 8"/>
  <path d="M158 43.5C170.5 69 185 126.2 155 183C117.5 254 80.5 354.5 87.5 448" stroke="#BFBFBF" stroke-linejoin="round" stroke-dasharray="8 8"/>

  <circle cx="162.5" cy="22.5" r="22" stroke="#3B41E3"/>
  <circle cx="162.5" cy="22.5" r="17.5" fill="#3B41E3"/>
  <path d="M159 19.9231V23.2511H169V21.4111V19.9231H159Z" fill="white"/>

  <circle cx="92.5" cy="469.5" r="22" stroke="#3B41E3"/>
  <circle cx="92.5" cy="469.5" r="17.5" fill="#3B41E3"/>
  <path d="M96.52 466.351C95.6347 467.375 94.9093 468.18 94.344 468.767C93.768 469.364 93.1707 469.86 92.552 470.255C91.9333 470.649 91.3147 470.847 90.696 470.847C90.056 470.847 89.5547 470.692 89.192 470.383C88.8293 470.084 88.648 469.609 88.648 468.959C88.648 468.329 88.8507 467.839 89.256 467.487C89.6507 467.145 90.184 466.964 90.856 466.943H89.64C88.712 89.577 88.072 90.271 87.4213 90.975C87.096 92.105 87.416 93.012 88.056 93.663C88.696 94.324 89.5493 94.655 90.616 94.655C91.384 94.655 92.1253 94.457 92.84 94.063C93.544 93.679 94.1787 93.215 94.744 92.671C95.2987 92.137 95.944 91.455 96.68 90.623L97.32 89.903V94.975H98.84V87.199L96.52 88.351L96.52 96.52Z" fill="white"/>

  <circle cx="22.5" cy="938.5" r="22" stroke="#3B41E3"/>
  <circle cx="22.5" cy="938.5" r="17.5" fill="#3B41E3"/>
  <path d="M20.216 934.178C19.224 934.242 18.4507 934.621 17.896 935.314C17.3413 936.018 17.064 936.914 17.064 938.002C17.064 938.749 17.1973 939.394 17.464 939.938C17.7307 940.482 18.0933 940.893 18.552 941.17C19.0107 941.447 19.528 941.586 20.104 941.586C20.7653 941.586 21.3307 941.41 21.8 941.058C22.2693 940.706 22.584 940.285 22.744 939.794V939.794C23 940.423 23.352 940.914 23.864 941.266C24.3653 941.618 25.0107 941.794 25.8 941.794C26.4293 941.794 26.9893 941.65 27.48 941.362C27.9707 941.074 28.36 940.647 28.648 940.082C28.9253 939.517 29.064 938.839 29.064 938.05C29.064 936.898 28.7707 935.949 28.184 935.202C27.5867 934.466 26.7333 934.071 25.624 934.018H26.1893C26.6533 935.821 27.016 936.434 27.368 936.829C27.544 937.362 27.544 938.034 27.544 938.685C27.544 939.186 27.368 939.538 27.016 939.89C26.6533 940.066 26.1893 940.066 25.624 940.066C24.8773 940.066 24.3493 939.826 24.04 939.346C23.72 938.877 23.56 938.151 23.56 937.17H22.056V936.754H22.0453C22.0453 937.186 21.9013 937.706 21.624 938.154C21.3467 938.613 20.9093 938.842 20.312 938.842C19.8 938.842 19.3947 939.677 19.096 939.346C18.7867 939.015 18.632 938.546 18.632 937.938C18.632 937.341 18.7867 936.877 19.096 936.546C19.3947 936.215 19.768 936.018 20.216 934.178H22.5Z" fill="white"/>
</svg>
